<svg t="1697706016392" class="icon" viewBox="0 0 1024 1024" version="1.1" xmlns="http://www.w3.org/2000/svg" p-id="1874" width="200" height="200"><path d="M226.8 219.1h570.5c90 0 163 73 163 163v244.5c0 90-73 163-163 163H226.8c-90 0-163-73-163-163V382.1c0-90.1 73-163 163-163z" fill="#F84949" p-id="1875"></path><path d="M212.3 677V331.7h52.8V627h82.6v50H212.3zM377.6 677V331.7h54.2V677h-54.2zM462.6 331.7h52.1l31.8 204.4c2.1 13.1 3.5 25.4 4.4 36.9 0.9 11.5 1.3 23.2 1.3 35v6.2c0.5-15.1 1.2-29.3 2.3-42.6 1-13.3 2.3-25.1 3.7-35.5L589 331.7h52.3L580 677h-55.6l-61.8-345.3zM672.9 677V331.7h139v49.9h-85.7v90.5H788V522h-61.8v103.1h85.7V677h-139z" fill="#FFFFFF" p-id="1876"></path></svg>