<svg t="1651574779962" class="icon" viewBox="0 0 1024 1024" version="1.1" xmlns="http://www.w3.org/2000/svg" p-id="1193" width="200" height="200"><path d="M0 0h1024v1024H0V0z" fill="#202425" opacity=".01" p-id="1194"></path><path d="M136.533333 307.2a34.133333 34.133333 0 0 1 34.133334-34.133333h682.666666a34.133333 34.133333 0 0 1 34.133334 34.133333v437.3504a68.266667 68.266667 0 0 1-35.566934 59.938133l-274.5344 149.7088a136.533333 136.533333 0 0 1-130.730666 0L172.100267 804.522667A68.266667 68.266667 0 0 1 136.533333 744.5504V307.2z" fill="#FF7744" p-id="1195"></path><path d="M68.266667 136.533333a68.266667 68.266667 0 0 1 68.266666-68.266666h750.933334a68.266667 68.266667 0 0 1 68.266666 68.266666v117.4528a34.133333 34.133333 0 0 1-16.247466 29.0816l-373.828267 230.058667a102.4 102.4 0 0 1-107.3152 0L84.514133 283.0336A34.133333 34.133333 0 0 1 68.266667 253.952V136.533333z" fill="#FFAA44" p-id="1196"></path><path d="M496.605867 339.490133a17.066667 17.066667 0 0 1 30.788266 0L576.853333 443.050667a17.066667 17.066667 0 0 0 13.175467 9.557333l113.800533 15.018667a17.066667 17.066667 0 0 1 9.5232 29.2864l-83.2512 79.018666a17.066667 17.066667 0 0 0-5.051733 15.496534l20.923733 112.8448a17.066667 17.066667 0 0 1-24.917333 18.090666l-100.864-54.715733a17.066667 17.066667 0 0 0-16.315733 0l-100.864 54.715733a17.066667 17.066667 0 0 1-24.917334-18.090666l20.8896-112.8448a17.066667 17.066667 0 0 0-5.0176-15.496534l-83.217066-79.018666a17.066667 17.066667 0 0 1 9.489066-29.2864l113.800534-15.018667a17.066667 17.066667 0 0 0 13.175466-9.557333l49.425067-103.560534z" fill="#FFFFFF" p-id="1197"></path></svg>